<svg width="31" height="39" viewBox="0 0 31 39" fill="none" xmlns="http://www.w3.org/2000/svg">
<path d="M13.4286 36.0715C13.4286 37.2156 14.356 38.143 15.5 38.143C16.644 38.143 17.5714 37.2156 17.5714 36.0715L13.4286 36.0715ZM16.9647 1.46395C16.1558 0.655014 14.8442 0.655014 14.0353 1.46395L0.852787 14.6464C0.0438443 15.4554 0.0438443 16.7669 0.852787 17.5759C1.66173 18.3848 2.97329 18.3848 3.78223 17.5759L15.5 5.85812L27.2178 17.5759C28.0267 18.3848 29.3383 18.3848 30.1472 17.5759C30.9562 16.7669 30.9562 15.4554 30.1472 14.6464L16.9647 1.46395ZM17.5714 36.0715L17.5714 2.92868L13.4286 2.92868L13.4286 36.0715L17.5714 36.0715Z" fill="white"/>
</svg>
