<?xml version="1.0" encoding="UTF-8" standalone="no"?>
<svg
   xmlns:dc="http://purl.org/dc/elements/1.1/"
   xmlns:cc="http://creativecommons.org/ns#"
   xmlns:rdf="http://www.w3.org/1999/02/22-rdf-syntax-ns#"
   xmlns:svg="http://www.w3.org/2000/svg"
   xmlns="http://www.w3.org/2000/svg"
   viewBox="0 0 2560 760"
   height="100%"
   width="100%"
   xml:space="preserve"
   id="svg2"
   version="1.1"><metadata
     id="metadata8"><rdf:RDF><cc:Work
         rdf:about=""><dc:format>image/svg+xml</dc:format><dc:type
           rdf:resource="http://purl.org/dc/dcmitype/StillImage" /></cc:Work></rdf:RDF></metadata><defs
     id="defs6"><clipPath
       id="clipPath20"
       clipPathUnits="userSpaceOnUse"><path
         id="path18"
         d="m 100,56.9492 h 19010 v 5592.99 H 100 Z" /></clipPath></defs><g
     transform="matrix(1.3333333,0,0,-1.3333333,0,760)"
     id="g10"><g
       transform="scale(0.1)"
       id="g12"><g
         id="g14"><g
           clip-path="url(#clipPath20)"
           id="g16"><path
             id="path22"
             style="fill:#231f20;fill-opacity:1;fill-rule:nonzero;stroke:none"
             d="m 2714.72,1331.64 c 0,-170.03 -33.21,-332.218 -99.07,-486.581 C 2549.51,690.422 2458.46,555.219 2342.32,439.352 2226.08,323.492 2089.93,230.832 1934.25,161.301 1778.47,91.7617 1610.62,56.9414 1431.16,56.9414 c -153.32,0 -309,20.668 -467.512,61.8986 C 805.137,159.98 662.574,230.832 535.766,331.129 408.953,431.609 304.602,564.18 222.801,729.109 140.809,893.75 100.047,1102.36 100.047,1354.75 v 3028.32 c 0,180.3 31.609,347.68 95.012,502.14 63.406,154.55 153.132,288.34 269.375,401.75 116.148,113.13 254.843,202.1 415.996,266.54 161.15,64.35 339.38,96.52 534.88,96.52 184.84,0 356.56,-32.17 514.97,-96.52 158.42,-64.44 295.8,-154.64 412.04,-270.41 116.14,-115.86 207.19,-254.94 273.33,-417.13 65.86,-162.38 99.07,-338.82 99.07,-529.12 v -309.1 H 1906.6 v 262.58 c 0,154.64 -44.91,288.43 -134.73,401.75 -89.83,113.13 -211.35,169.93 -364.48,169.93 -200.88,0 -334.2,-60.57 -400.15,-181.44 -66.142,-121.15 -99.068,-274.28 -99.068,-459.68 V 1408.91 c 0,-159.64 35.664,-293.53 106.998,-401.66 71.23,-108.219 199.27,-162.191 384.29,-162.191 52.74,0 109.54,8.972 170.31,26.992 60.66,17.929 116.14,47.461 166.43,88.691 50.01,41.228 91.05,97.838 122.85,170.118 31.7,71.99 47.55,162.19 47.55,270.31 v 270.42 h 808.12" /><path
             id="path24"
             style="fill:#231f20;fill-opacity:1;fill-rule:nonzero;stroke:none"
             d="m 4984.23,4020.02 h -15.56 L 4580.31,2026.93 h 792.37 z m -334,1583.6 H 5310.6 L 6545.94,103.289 H 5753.48 L 5520.44,1285.33 H 4440.48 L 4207.44,103.289 h -792.56" /><path
             id="path26"
             style="fill:#231f20;fill-opacity:1;fill-rule:nonzero;stroke:none"
             d="m 9956.4,4020.02 h -790.19 v 177.67 c 0,180.21 -42.56,335.98 -127.85,467.41 -85.29,131.34 -228.61,196.92 -430.05,196.92 -108.51,0 -197.48,-20.57 -267.3,-61.71 -69.63,-41.33 -123.89,-94.07 -162.67,-158.42 -38.77,-64.53 -65.85,-139.07 -81.33,-224.08 -15.57,-85.01 -23.21,-173.7 -23.21,-266.45 0,-108.13 3.87,-199.74 11.61,-274.28 7.73,-74.73 27.08,-138.98 58.12,-193.14 30.95,-54.06 76.14,-101.81 135.58,-142.85 59.35,-41.32 140.68,-82.46 244,-123.69 l 604.32,-239.47 c 175.49,-66.99 317.68,-145.49 426.09,-235.6 108.51,-90.2 192.48,-195.68 251.83,-316.73 59.34,-121.06 99.44,-260.13 120.11,-417.13 20.57,-157.1 30.94,-336.08 30.94,-536.96 0,-231.73 -23.21,-446.76 -69.72,-645.08 C 9840.26,828.289 9763.93,658.172 9658.16,516.551 9552.29,374.93 9411.52,262.93 9235.84,180.66 9060.25,98.3789 8845.79,56.9609 8592.83,56.9609 c -191.16,0 -369.39,33.6875 -534.5,100.4881 -165.4,66.891 -307.4,158.321 -426.19,274.18 -118.88,115.871 -213.05,253.531 -282.87,413.453 -69.63,159.548 -104.44,332.028 -104.44,517.428 v 293.53 h 790.19 v -247.11 c 0,-144.26 42.65,-274.28 127.76,-390.24 85.29,-115.858 228.61,-173.608 430.05,-173.608 134.26,0 238.9,19.25 313.82,57.75 74.82,38.68 131.71,92.84 170.49,162.378 38.68,69.44 63.12,155.58 73.59,258.8 10.19,102.94 15.48,216.26 15.48,339.76 0,144.17 -5.29,262.77 -15.48,355.43 -10.47,92.65 -32.36,167.28 -65.85,224.08 -33.69,56.61 -80.2,102.94 -139.55,138.98 -59.44,35.95 -138.23,74.64 -236.35,115.87 l -565.45,231.82 c -340.99,138.98 -569.51,323.06 -685.66,552.33 -116.33,229.09 -174.36,516.2 -174.36,861.44 0,205.78 28.4,401.65 85.2,587.05 56.8,185.41 140.59,344.95 251.83,478.93 111.05,133.89 251.82,240.6 422.22,320.61 170.4,79.82 369.29,119.64 596.59,119.64 196.15,0 375.71,-35.95 538.46,-108.04 162.67,-72.27 302.12,-167.56 418.36,-285.88 116.24,-118.51 205.21,-251.16 267.3,-397.79 61.99,-146.9 92.93,-297.58 92.93,-451.94" /><path
             id="path28"
             style="fill:#231f20;fill-opacity:1;fill-rule:nonzero;stroke:none"
             d="m 11074.6,5603.64 h 2348.3 v -741.6 H 11862.6 V 3247.49 h 1359.5 V 2505.88 H 11862.6 V 891.332 h 1560.3 V 103.309 h -2348.3" /><path
             id="path30"
             style="fill:#231f20;fill-opacity:1;fill-rule:nonzero;stroke:none"
             d="m 14567.1,103.281 h 749.398 v 3917.39 H 14567.1 Z" /><g
             transform="scale(1.17239)"
             id="g32"><path
               id="path34"
               style="fill:#231f20;fill-opacity:1;fill-rule:nonzero;stroke:none"
               d="m 14810.7,4147.07 h -799 v 632.56 H 16300 v -632.56 h -798.9 V 88.0844 h -690.4" /></g><path
             id="path36"
             style="fill:#d51e28;fill-opacity:1;fill-rule:nonzero;stroke:none"
             d="m 15473.1,5094.66 c 0,-302.68 -245.4,-548.09 -548.1,-548.09 -302.6,0 -548,245.41 -548,548.09 0,302.68 245.4,548.09 548,548.09 302.7,0 548.1,-245.41 548.1,-548.09" /></g></g></g></g></svg>