<svg width="2262" height="557" viewBox="0 0 2262 557" fill="none" xmlns="http://www.w3.org/2000/svg">
<path d="M1927.65 555.994V339.762H1951.38V278.496H1981.89V228.042H2012.39V173.984H2103.91L2107.3 555.994M1829.36 476.71H1920.88M1829.36 498.333H1924.27M1825.97 519.956H1924.27M1754.79 465.903C1772.87 467.105 1811.73 465.183 1822.58 447.884C1836.14 426.261 1771.74 556 1758.18 556M1825.97 451.484V552.392M1751.39 458.688V555.993M1676.82 465.899C1698.29 467.1 1743.26 465.899 1751.39 451.484C1761.56 433.464 1710.72 545.184 1686.99 548.788M1544.63 181.193V1H1605.64V462.295M1439.55 476.711V220.837H1558.19L1561.58 458.692M1449.72 217.233C1446.33 192.006 1474.12 156.687 1503.95 159.57C1541.24 163.174 1551.41 202.818 1551.41 217.233M1246.34 548.789V523.562H1517.51M1253.12 519.958C1272.33 488.725 1324.98 444.998 1381.93 519.958M1209.06 181.192H1249.74V152.361H1290.41V181.192H1327.7M1270.08 145.154V123.53M904 555.994H1198.89M1198.89 555.994H2354.74M1198.89 555.994V256.874H1259.91V242.458M1283.63 242.458V256.874H1344.65V476.709M1209.06 181.193C1228.27 224.439 1278.89 284.984 1327.7 181.193M1324.31 523.56C1343.51 485.118 1396.84 431.301 1456.5 523.56M1398.88 523.56C1416.96 488.723 1466.67 438.509 1520.9 516.353M1503.95 552.392C1520.9 533.171 1552.76 491.847 1544.63 451.484C1564.97 468.302 1605.64 473.107 1673.43 455.088M1673.43 455.088C1662.13 491.126 1638.86 552.392 1622.59 552.392M1673.43 455.088L1683.6 555.995M1639.54 462.293V166.776H1771.73V462.293M1807.77 458.69C1794.95 439.779 1777 387.451 1807.77 350.575C1839.52 312.518 1870.77 317.017 1883.59 321.745C1895.34 324.109 1919.16 337.423 1924.29 362.953M931.653 555.994V339.762H955.38V278.496H985.886V228.042H1016.39V173.984H1107.91L1111.3 555.994M833.357 476.71H924.875M833.357 498.333H928.265M829.967 519.956H928.265M758.788 465.903C776.865 467.105 815.733 465.183 826.579 447.884C840.137 426.261 775.736 556 762.177 556M829.967 451.484V552.392M755.393 458.688V555.993M680.822 465.899C702.289 467.1 747.258 465.899 755.393 451.484C765.561 433.464 714.718 545.184 690.991 548.788M548.631 181.193V1H609.644V462.295M443.551 476.711V220.837H562.186L565.576 458.692M453.72 217.233C450.33 192.006 478.124 156.687 507.953 159.57C545.238 163.174 555.407 202.818 555.407 217.233M250.344 548.789V523.562H521.511M257.123 519.958C276.331 488.725 328.982 444.998 385.927 519.958M213.064 181.192H253.739V152.361H294.414V181.192H331.7M274.077 145.154V123.53M-92 555.994H202.893M202.893 555.994H1358.74M202.893 555.994V256.874H263.906V242.458M287.633 242.458V256.874H348.645V476.709M213.062 181.193C232.27 224.439 282.887 284.984 331.697 181.193M328.306 523.56C347.513 485.118 400.843 431.301 460.499 523.56M402.88 523.56C420.958 488.723 470.671 438.509 524.905 516.353M507.953 552.392C524.901 533.171 556.763 491.847 548.628 451.484C568.966 468.302 609.64 473.107 677.432 455.088M677.432 455.088C666.133 491.126 642.858 552.392 626.588 552.392M677.432 455.088L687.6 555.995M643.538 462.293V166.776H775.732V462.293M811.768 458.69C798.947 439.779 780.997 387.451 811.768 350.575C843.523 312.518 874.767 317.017 887.588 321.745C899.34 324.109 923.159 337.423 928.287 362.953" stroke="#AEAEAE" stroke-width="2" stroke-linecap="round" stroke-linejoin="round" stroke-dasharray="4 4"/>
</svg>
