<svg width="1984" height="1214" viewBox="0 0 1984 1214" fill="none" xmlns="http://www.w3.org/2000/svg">
<g filter="url(#filter0_f_2191_2321)">
<path opacity="0.1" d="M986.083 647.991V66.6348" stroke="#C53434" stroke-opacity="0.2" stroke-width="3" stroke-miterlimit="10" stroke-dasharray="10 10"/>
<path d="M992.199 1207C1536.31 1207 1977.4 938.371 1977.4 607C1977.4 275.629 1536.31 7 992.199 7C448.089 7 7 275.629 7 607C7 938.371 448.089 1207 992.199 1207Z" stroke="#C53434" stroke-opacity="0.2" stroke-width="3" stroke-miterlimit="10" stroke-dasharray="10 10"/>
<path d="M992.199 1207C1198.34 1207 1365.46 938.371 1365.46 607C1365.46 275.629 1198.34 7 992.199 7C786.054 7 618.94 275.629 618.94 607C618.94 938.371 786.054 1207 992.199 1207Z" stroke="#C53434" stroke-opacity="0.2" stroke-width="3" stroke-miterlimit="10" stroke-dasharray="10 10"/>
<path d="M992.199 1207C1403.16 1207 1736.31 938.371 1736.31 607C1736.31 275.629 1403.16 7 992.199 7C581.237 7 248.086 275.629 248.086 607C248.086 938.371 581.237 1207 992.199 1207Z" stroke="#C53434" stroke-opacity="0.2" stroke-width="3" stroke-miterlimit="10" stroke-dasharray="10 10"/>
<path d="M986.208 7L986.208 1205.43" stroke="#C53434" stroke-opacity="0.2" stroke-width="3" stroke-miterlimit="10" stroke-linecap="round" stroke-dasharray="10 10"/>
<path d="M1952.94 610.724H31.4629" stroke="#C53434" stroke-opacity="0.2" stroke-width="3" stroke-miterlimit="10" stroke-linecap="round" stroke-dasharray="10 10"/>
<path d="M1830.56 908.876H141.614" stroke="#C53434" stroke-opacity="0.2" stroke-width="3" stroke-miterlimit="10" stroke-linecap="round" stroke-dasharray="10 10"/>
<path d="M1830.56 305.148H141.614" stroke="#C53434" stroke-opacity="0.2" stroke-width="3" stroke-miterlimit="10" stroke-linecap="round" stroke-dasharray="10 10"/>
</g>
<defs>
<filter id="filter0_f_2191_2321" x="0.5" y="0.5" width="1983.4" height="1213" filterUnits="userSpaceOnUse" color-interpolation-filters="sRGB">
<feFlood flood-opacity="0" result="BackgroundImageFix"/>
<feBlend mode="normal" in="SourceGraphic" in2="BackgroundImageFix" result="shape"/>
<feGaussianBlur stdDeviation="2.5" result="effect1_foregroundBlur_2191_2321"/>
</filter>
</defs>
</svg>
