<svg width="100%" height="100%" viewBox="0 0 374 155" fill="white" xmlns="http://www.w3.org/2000/svg">
<path fill-rule="evenodd" clip-rule="evenodd" d="M80.432 71.7756C80.432 86.2775 77.1173 97.9612 70.488 106.827C63.8587 115.692 54.8827 120.125 43.56 120.125C32.3826 120.125 23.5099 116.693 16.9419 109.828C16.7051 109.581 16.28 109.746 16.28 110.088V154.626C16.28 154.833 16.1126 155 15.906 155H0.373986C0.167439 155 0 154.833 0 154.626V23.4478C0 23.2413 0.167439 23.0739 0.373986 23.0739H14.525C14.7207 23.0739 14.8833 23.2247 14.8979 23.4199L15.5934 32.6994C15.6187 33.0375 16.0474 33.1721 16.2671 32.914C22.8478 25.1797 31.8575 21.3125 43.296 21.3125C54.736 21.3125 63.7707 25.6278 70.4 34.2585C77.088 42.8892 80.432 54.8958 80.432 70.2784V71.7756ZM64.152 69.9261C64.152 59.1818 61.864 50.6979 57.288 44.4744C52.712 38.2509 46.4347 35.1392 38.456 35.1392C28.6324 35.1392 21.2566 39.4846 16.3286 48.1754C16.2969 48.2313 16.28 48.2951 16.28 48.3595V93.695C16.28 93.759 16.2967 93.8226 16.3282 93.8783C21.1984 102.511 28.633 106.827 38.632 106.827C46.4347 106.827 52.624 103.744 57.2 97.5795C61.8347 91.3561 64.152 82.1383 64.152 69.9261ZM118.888 117.99C118.888 118.196 118.721 118.364 118.514 118.364H102.982C102.775 118.364 102.608 118.196 102.608 117.99V23.4478C102.608 23.2413 102.775 23.0739 102.982 23.0739H118.514C118.721 23.0739 118.888 23.2413 118.888 23.4478V117.99ZM176.44 96.2585L199.94 23.3331C199.99 23.1786 200.134 23.0739 200.296 23.0739H216.125C216.384 23.0739 216.564 23.3304 216.477 23.574L182.601 118.116C182.548 118.264 182.407 118.364 182.249 118.364H170.366C170.209 118.364 170.068 118.265 170.015 118.117L169.488 116.661C169.458 116.58 169.458 116.492 169.486 116.412L176.44 96.2585ZM136.141 23.0739C135.882 23.0739 135.701 23.3313 135.789 23.5752L162.981 98.6883C163.102 99.0227 163.578 99.0153 163.688 98.6773L170.389 78.193C170.414 78.117 170.414 78.0351 170.389 77.9593L152.325 23.3304C152.274 23.1773 152.131 23.0739 151.97 23.0739H136.141ZM226.6 69.8381C226.6 60.5028 228.419 52.107 232.056 44.6506C235.752 37.1941 240.856 31.4403 247.368 27.3892C253.939 23.3381 261.419 21.3125 269.808 21.3125C282.773 21.3125 293.245 25.804 301.224 34.7869C309.261 43.7699 313.28 55.7178 313.28 70.6307V71.7756C313.28 81.0521 311.491 89.3892 307.912 96.7869C304.392 104.126 299.317 109.85 292.688 113.96C286.117 118.07 278.549 120.125 269.984 120.125C257.077 120.125 246.605 115.634 238.568 106.651C230.589 97.6676 226.6 85.7784 226.6 70.9829V69.8381ZM242.968 71.7756C242.968 82.3437 245.403 90.8276 250.272 97.2273C255.2 103.627 261.771 106.827 269.984 106.827C278.256 106.827 284.827 103.598 289.696 97.1392C294.565 90.6222 297 81.5218 297 69.8381C297 59.3873 294.507 50.9328 289.52 44.4744C284.592 37.9574 278.021 34.6989 269.808 34.6989C261.771 34.6989 255.288 37.8987 250.36 44.2983C245.432 50.6979 242.968 59.857 242.968 71.7756ZM355.41 0C355.617 0 355.784 0.167441 355.784 0.373988V22.6999C355.784 22.9064 355.951 23.0739 356.158 23.0739H373.186C373.393 23.0739 373.56 23.2413 373.56 23.4478V35.2936C373.56 35.5002 373.393 35.6676 373.186 35.6676H356.158C355.951 35.6676 355.784 35.8351 355.784 36.0416V94.7614C355.784 98.5776 356.576 101.455 358.16 103.392C359.744 105.271 362.443 106.21 366.256 106.21C368.046 106.21 370.476 105.89 373.547 105.249C373.78 105.201 374 105.378 374 105.616V118.078C374 118.247 373.887 118.395 373.725 118.438C369.539 119.563 365.465 120.125 361.504 120.125C354.229 120.125 348.744 117.923 345.048 113.52C341.352 109.116 339.504 102.864 339.504 94.7614V36.0416C339.504 35.8351 339.337 35.6676 339.13 35.6676H322.542C322.335 35.6676 322.168 35.5002 322.168 35.2936V23.4478C322.168 23.2413 322.335 23.0739 322.542 23.0739H339.13C339.337 23.0739 339.504 22.9064 339.504 22.6999V0.373987C339.504 0.167439 339.671 0 339.878 0H355.41Z" fill="white"/>
</svg>
