<svg width="658" height="249" viewBox="0 0 658 249" fill="none" xmlns="http://www.w3.org/2000/svg">
<path d="M188.497 26.281C188.497 38.4106 178.45 48.2886 166 48.2886C153.55 48.2886 143.503 38.4106 143.503 26.281C143.503 14.1514 153.55 4.27339 166 4.27339C178.45 4.27339 188.497 14.1514 188.497 26.281Z" fill="white" stroke="white" stroke-width="2.54688"/>
<path d="M655 32.5432H656.274V31.2698V5.66063V4.38719H655H544.635H543.362V5.66063V31.2698V32.5432H544.635H584.112V242.462V243.736H585.385H614.59H615.863V242.462V32.5432H655Z" fill="white" stroke="white" stroke-width="2.54688"/>
<path d="M490.976 229.31L490.977 229.309C498.812 220.577 503.204 210.738 505.637 194.883C508.06 179.095 508.555 157.233 508.555 124.401C508.555 91.5686 508.06 69.707 505.637 53.9186C503.204 38.0641 498.812 28.2253 490.977 19.4925L490.976 19.4919C481.458 8.8988 468.513 1.72652 449.552 1.72652C430.592 1.72652 417.646 8.8988 408.128 19.4919L408.128 19.4925C400.292 28.2253 395.9 38.0641 393.467 53.9186C391.045 69.707 390.55 91.5686 390.55 124.401C390.55 157.233 391.045 179.095 393.467 194.883C395.9 210.738 400.292 220.577 408.128 229.309L408.128 229.31C417.646 239.903 430.592 247.075 449.552 247.075C468.513 247.075 481.458 239.903 490.976 229.31ZM467.771 38.4424C471.722 43.8463 474.175 51.1708 475.616 64.2981C477.059 77.4342 477.475 96.2107 477.475 124.401C477.475 152.591 477.059 171.368 475.616 184.504C474.175 197.631 471.722 204.956 467.771 210.36C464.029 215.372 458.435 218.848 449.552 218.848C440.649 218.848 434.732 215.357 431.002 210.359C427.055 204.962 424.683 197.644 423.323 184.512C421.962 171.372 421.629 152.595 421.629 124.401C421.629 96.2073 421.962 77.4295 423.323 64.2902C424.683 51.1581 427.055 43.8404 431.002 38.4427C434.732 33.4454 440.649 29.9544 449.552 29.9544C458.435 29.9544 464.029 33.4297 467.771 38.4424Z" fill="white" stroke="white" stroke-width="2.54688"/>
<path d="M181.281 243.736H182.555V242.462V79.4949V78.2215H181.281H152.417H151.143V79.4949V242.462V243.736H152.417H181.281Z" fill="white" stroke="white" stroke-width="2.54688"/>
<path d="M32.2042 243.736H33.4776V242.462V144.957H57.3333C75.5117 144.957 90.2778 140.674 100.465 129.579C110.626 118.511 115.996 100.916 115.996 74.8386C115.996 48.4417 110.802 30.7593 100.723 19.6867C90.6151 8.58189 75.8395 4.38719 57.3333 4.38719H3H1.72656V5.66063V242.462V243.736H3H32.2042ZM56.3146 32.5432C65.8899 32.5432 72.7308 35.353 77.26 41.8122C81.8671 48.3826 84.2453 58.9438 84.2453 74.8386C84.2453 90.5652 81.8676 101.042 77.262 107.571C72.7331 113.991 65.8907 116.801 56.3146 116.801H33.4776V32.5432H56.3146Z" fill="white" stroke="white" stroke-width="2.54688"/>
<path fill-rule="evenodd" clip-rule="evenodd" d="M302.512 243.127L354.808 2.99995H322.887L296.25 148.756L280.45 243.127H302.512ZM267.31 218.702L220.333 2.99995H252.594L278.999 148.888L267.31 218.702Z" fill="white"/>
</svg>
